<svg width="329" height="16" viewBox="0 0 329 16" fill="none" xmlns="http://www.w3.org/2000/svg">
<g clip-path="url(#clip0)">
<path d="M283.648 4.14648C285.69 2.66826 288.24 1.86324 290.868 1.86671C293.603 1.86671 296.115 2.72055 298.088 4.14648L297.286 5.03397C295.471 3.71988 293.204 3.00428 290.868 3.00745C288.436 3.00745 286.204 3.76604 284.45 5.03397L283.648 4.14648ZM285.653 6.36522C287.128 5.29748 288.969 4.71602 290.868 4.71856C292.843 4.71856 294.657 5.33513 296.083 6.36465L295.28 7.25214C294.032 6.34886 292.474 5.85703 290.868 5.8593C289.197 5.8593 287.661 6.38119 286.455 7.25214L285.653 6.36465V6.36522ZM287.659 8.58396C288.566 7.92683 289.7 7.56893 290.868 7.57041C292.083 7.57041 293.2 7.9497 294.077 8.58338L293.275 9.47088C292.594 8.97821 291.744 8.70994 290.868 8.71115C289.956 8.71115 289.119 8.99576 288.461 9.47088L287.659 8.58338V8.58396ZM289.664 10.8027C290.005 10.5561 290.43 10.4218 290.868 10.4223C291.324 10.4223 291.742 10.5648 292.071 10.8021L290.868 12.1334L289.664 10.8021V10.8027Z" fill="#F2F2F2"/>
</g>
<path d="M6.23438 8.24219C5.59896 8.91406 4.85677 9.25 4.00781 9.25C3.00781 9.25 2.21094 8.90104 1.61719 8.20312C1.02344 7.5 0.726562 6.57812 0.726562 5.4375C0.726562 4.6875 0.877604 4.00781 1.17969 3.39844C1.48177 2.78906 1.91146 2.3151 2.46875 1.97656C3.02604 1.63802 3.67188 1.46875 4.40625 1.46875C5.55208 1.46875 6.46094 1.89583 7.13281 2.75C7.80469 3.60417 8.14062 4.7474 8.14062 6.17969V6.71094C8.14062 8.76302 7.67708 10.3281 6.75 11.4062C5.82292 12.4844 4.4401 13.0312 2.60156 13.0469H2.375V11.4766H2.64844C3.76823 11.4609 4.6276 11.1927 5.22656 10.6719C5.82552 10.1458 6.16146 9.33594 6.23438 8.24219ZM4.40625 7.76562C4.78646 7.76562 5.14323 7.65625 5.47656 7.4375C5.8099 7.21875 6.06771 6.91667 6.25 6.53125V5.78906C6.25 4.95052 6.07812 4.27604 5.73438 3.76562C5.39062 3.25521 4.94531 3 4.39844 3C3.85156 3 3.41406 3.22656 3.08594 3.67969C2.76302 4.1276 2.60156 4.69531 2.60156 5.38281C2.60156 6.09635 2.76562 6.67188 3.09375 7.10938C3.42188 7.54688 3.85938 7.76562 4.40625 7.76562ZM11.2109 11C11.5651 11 11.8385 11.1016 12.0312 11.3047C12.224 11.5026 12.3203 11.7526 12.3203 12.0547C12.3203 12.3516 12.224 12.599 12.0312 12.7969C11.8385 12.9896 11.5651 13.0859 11.2109 13.0859C10.8724 13.0859 10.6042 12.9896 10.4062 12.7969C10.2083 12.6042 10.1094 12.3568 10.1094 12.0547C10.1094 11.7526 10.2057 11.5026 10.3984 11.3047C10.5911 11.1016 10.862 11 11.2109 11ZM11.2109 4.36719C11.5651 4.36719 11.8385 4.46875 12.0312 4.67188C12.224 4.86979 12.3203 5.11979 12.3203 5.42188C12.3203 5.71875 12.224 5.96615 12.0312 6.16406C11.8385 6.35677 11.5651 6.45312 11.2109 6.45312C10.8724 6.45312 10.6042 6.35677 10.4062 6.16406C10.2083 5.97135 10.1094 5.72396 10.1094 5.42188C10.1094 5.11979 10.2057 4.86979 10.3984 4.67188C10.5911 4.46875 10.862 4.36719 11.2109 4.36719ZM20.6172 8.94531H22.0312V10.4688H20.6172V13H18.7188V10.4688H13.8047L13.75 9.3125L18.6562 1.625H20.6172V8.94531ZM15.7422 8.94531H18.7188V4.19531L18.5781 4.44531L15.7422 8.94531ZM28.4297 13H26.5391V3.86719L23.75 4.82031V3.21875L28.1875 1.58594H28.4297V13Z" fill="#F2F2F2"/>
<path d="M328 4.72727V9.27273H326.625V4.72727H328Z" fill="#F2F2F2"/>
<path d="M322.499 10.1818V3.81818H309.336V10.1818H322.499Z" fill="#F2F2F2"/>
<path d="M328 4.72727V9.27273H326.625V4.72727H328Z" stroke="#F2F2F2"/>
<path d="M322.499 10.1818V3.81818H309.336V10.1818H322.499Z" stroke="#F2F2F2"/>
<path fill-rule="evenodd" clip-rule="evenodd" d="M271.372 1C270.82 1 270.372 1.44772 270.372 2V10.9999C270.372 11.5521 270.82 11.9999 271.372 11.9999H271.489C272.042 11.9999 272.489 11.5521 272.489 10.9999V2C272.489 1.44772 272.042 1 271.489 1H271.372ZM267.608 4C267.056 4 266.608 4.44772 266.608 5V10.9999C266.608 11.5522 267.056 11.9999 267.608 11.9999H267.726C268.278 11.9999 268.726 11.5522 268.726 10.9999V5C268.726 4.44772 268.278 4 267.726 4H267.608ZM262.844 7C262.844 6.44772 263.292 6 263.844 6H263.962C264.514 6 264.962 6.44772 264.962 7V10.9999C264.962 11.5522 264.514 11.9999 263.962 11.9999H263.844C263.292 11.9999 262.844 11.5522 262.844 10.9999V7ZM260.081 8.00015C259.528 8.00015 259.081 8.44787 259.081 9.00015V11.0001C259.081 11.5524 259.528 12.0001 260.081 12.0001H260.198C260.75 12.0001 261.198 11.5524 261.198 11.0001V9.00015C261.198 8.44787 260.75 8.00015 260.198 8.00015H260.081Z" fill="#F2F2F2"/>
<defs>
<clipPath id="clip0">
<rect width="14.4403" height="14" fill="white" transform="translate(283.648)"/>
</clipPath>
</defs>
</svg>
