<svg width="16" height="21" viewBox="0 0 16 21" fill="none" xmlns="http://www.w3.org/2000/svg">
<path d="M15.4452 7.9104H14.2026V6.25365C14.2026 3.05629 11.6015 0.455078 8.40405 0.455078C5.20665 0.455078 2.60548 3.05629 2.60548 6.25365V7.9104H1.36293C1.13399 7.9104 0.94873 8.09566 0.94873 8.3246V18.6792C0.94873 19.5929 1.69174 20.3359 2.60548 20.3359H14.2027C15.1164 20.3359 15.8594 19.5929 15.8594 18.6792V8.3246C15.8594 8.09566 15.6741 7.9104 15.4452 7.9104ZM9.6442 16.5626C9.65713 16.6795 9.61954 16.7968 9.54107 16.8846C9.46259 16.9723 9.35014 17.0225 9.23245 17.0225H7.5757C7.458 17.0225 7.34555 16.9723 7.26708 16.8846C7.1886 16.7968 7.15098 16.6795 7.16395 16.5626L7.42523 14.213C7.00094 13.9044 6.74734 13.4162 6.74734 12.8806C6.74734 11.9669 7.49035 11.2239 8.40409 11.2239C9.31784 11.2239 10.0608 11.9669 10.0608 12.8806C10.0608 13.4162 9.80725 13.9044 9.38295 14.213L9.6442 16.5626ZM11.7175 7.9104H5.09059V6.25365C5.09059 4.42663 6.57703 2.94019 8.40405 2.94019C10.2311 2.94019 11.7175 4.42663 11.7175 6.25365V7.9104Z" fill="#FF007A"/>
</svg>
