<svg width="47" height="50" viewBox="0 0 47 50" fill="none" xmlns="http://www.w3.org/2000/svg">
<path d="M13.8406 5.17134C13.2137 5.07471 13.1873 5.06338 13.4823 5.01831C14.0476 4.93191 15.3824 5.04968 16.3022 5.26704C18.4496 5.77438 20.4036 7.07401 22.4894 9.38218L23.0436 9.99538L23.8363 9.86871C27.1758 9.33531 30.5731 9.75924 33.4147 11.0639C34.1963 11.4228 35.429 12.1373 35.583 12.3209C35.632 12.3794 35.722 12.7561 35.783 13.158C35.994 14.5486 35.8883 15.6144 35.4607 16.4105C35.2277 16.8437 35.2147 16.981 35.3713 17.3518C35.4963 17.6476 35.8447 17.8666 36.1897 17.8661C36.8957 17.8652 37.6557 16.7306 38.008 15.152L38.148 14.525L38.425 14.8369C39.945 16.5486 41.139 18.8829 41.344 20.5445L41.3973 20.9777L41.142 20.5839C40.7023 19.9062 40.2603 19.4448 39.6947 19.0727C38.6747 18.402 37.5963 18.1738 34.7407 18.0242C32.1613 17.8891 30.7015 17.6702 29.254 17.201C26.7913 16.403 25.5498 15.3401 22.6243 11.5253C21.3249 9.83091 20.5218 8.89344 19.7229 8.13848C17.9076 6.42301 16.1239 5.52334 13.8406 5.17134Z" fill="white"/>
<path d="M36.1646 8.95466C36.2296 7.81926 36.3843 7.07036 36.696 6.38643C36.8193 6.11573 36.9346 5.89417 36.9526 5.89417C36.9703 5.89417 36.9166 6.09397 36.8333 6.33817C36.607 7.0019 36.5696 7.90977 36.7256 8.96603C36.9236 10.3062 37.0363 10.4996 38.4616 11.9473C39.13 12.6264 39.9076 13.4828 40.1893 13.8505L40.702 14.519L40.1893 14.0412C39.5626 13.4569 38.1213 12.3174 37.803 12.1545C37.5893 12.0453 37.5576 12.0472 37.426 12.1775C37.3046 12.2975 37.279 12.4779 37.2623 13.3306C37.236 14.6596 37.0536 15.5127 36.614 16.3656C36.376 16.8269 36.3383 16.7285 36.5536 16.2078C36.7143 15.819 36.7306 15.6481 36.7296 14.3615C36.727 11.7765 36.4183 11.155 34.6076 10.0904C34.149 9.8207 33.393 9.43176 32.9279 9.22603C32.4629 9.0203 32.0935 8.8411 32.1069 8.8277C32.1582 8.777 33.924 9.28926 34.635 9.56103C35.6923 9.96523 35.8666 10.0176 35.995 9.96886C36.0813 9.93616 36.123 9.68703 36.1646 8.95466Z" fill="white"/>
<path d="M15.0582 13.3768C13.7856 11.6355 12.9983 8.96572 13.1687 6.96996L13.2214 6.35236L13.5111 6.40489C14.0551 6.50349 14.993 6.85046 15.4321 7.11559C16.6373 7.84306 17.1591 8.80086 17.6899 11.2603C17.8454 11.9807 18.0494 12.796 18.1433 13.072C18.2944 13.5162 18.8654 14.5539 19.3297 15.2278C19.6641 15.7131 19.4419 15.9431 18.7027 15.8768C17.5738 15.7755 16.0447 14.7266 15.0582 13.3768Z" fill="white"/>
<path d="M34.621 26.3362C28.6741 23.9563 26.5796 21.8906 26.5796 18.4051C26.5796 17.8922 26.5974 17.4725 26.619 17.4725C26.6407 17.4725 26.8708 17.6418 27.1303 17.8487C28.3362 18.8101 29.6866 19.2207 33.425 19.7627C35.625 20.0817 36.863 20.3394 38.005 20.7158C41.6346 21.9123 43.8803 24.3403 44.416 27.6474C44.5716 28.6084 44.4803 30.4105 44.228 31.3602C44.029 32.1104 43.421 33.4626 43.2596 33.5146C43.215 33.5289 43.1713 33.3586 43.1596 33.1269C43.0986 31.885 42.4673 30.6761 41.407 29.7704C40.2013 28.7408 38.5816 27.921 34.621 26.3362Z" fill="white"/>
<path d="M30.4461 27.325C30.3716 26.8843 30.2424 26.3215 30.1589 26.0743L30.0072 25.625L30.289 25.9394C30.6791 26.3745 30.9873 26.9313 31.2485 27.6729C31.4479 28.2389 31.4703 28.4072 31.4688 29.327C31.4673 30.2299 31.4424 30.4192 31.2583 30.9287C30.968 31.732 30.6077 32.3017 30.0032 32.9131C28.9169 34.0121 27.5202 34.6204 25.5047 34.8727C25.1544 34.9164 24.1333 34.9904 23.2356 35.0367C20.9733 35.1537 19.4843 35.3954 18.1464 35.8624C17.9541 35.9294 17.7823 35.9704 17.7649 35.9531C17.7107 35.8994 18.6217 35.3597 19.3741 34.9994C20.435 34.4914 21.4911 34.2144 23.8573 33.8227C25.0261 33.6291 26.2332 33.3944 26.5398 33.301C29.4344 32.4189 30.9223 30.1426 30.4461 27.325Z" fill="white"/>
<path d="M33.1723 32.137C32.3822 30.4488 32.2007 28.8188 32.6336 27.2987C32.68 27.1363 32.7544 27.0034 32.7992 27.0034C32.844 27.0034 33.0304 27.1035 33.2135 27.2259C33.5777 27.4696 34.308 27.8799 36.2533 28.9341C38.681 30.2497 40.0653 31.2684 41.0067 32.4322C41.831 33.4514 42.341 34.6124 42.5867 36.028C42.7257 36.8297 42.644 38.759 42.437 39.5664C41.7843 42.1124 40.2673 44.112 38.1037 45.279C37.7867 45.45 37.502 45.5904 37.4713 45.591C37.4403 45.5917 37.556 45.2997 37.728 44.9424C38.4557 43.43 38.5387 41.959 37.9883 40.3217C37.6513 39.319 36.9643 38.0957 35.5773 36.028C33.9643 33.6244 33.569 32.9847 33.1723 32.137Z" fill="white"/>
<path d="M10.8349 41.2457C13.0417 39.3937 15.7876 38.078 18.2889 37.674C19.3668 37.5 21.1626 37.569 22.1608 37.823C23.7608 38.23 25.1921 39.1417 25.9365 40.2277C26.6639 41.289 26.976 42.214 27.301 44.272C27.4292 45.084 27.5686 45.899 27.6108 46.0837C27.8548 47.1503 28.3297 48.0027 28.9181 48.431C29.8528 49.111 31.4622 49.153 33.0454 48.5393C33.3141 48.435 33.5473 48.363 33.5637 48.3793C33.6213 48.436 32.8239 48.9663 32.2616 49.2457C31.5048 49.6213 30.903 49.7667 30.1034 49.7667C28.6534 49.7667 27.4495 49.0337 26.445 47.5387C26.2473 47.2443 25.803 46.3633 25.4576 45.5803C24.397 43.176 23.8733 42.4437 22.6418 41.642C21.5701 40.9447 20.188 40.8197 19.1483 41.3263C17.7825 41.992 17.4014 43.7267 18.3796 44.826C18.7684 45.263 19.4934 45.6397 20.0863 45.713C21.1954 45.8503 22.1485 45.0117 22.1485 43.8987C22.1485 43.176 21.869 42.7637 21.1655 42.448C20.2047 42.017 19.1719 42.521 19.1768 43.418C19.1789 43.8007 19.3465 44.0407 19.7324 44.2143C19.9799 44.3257 19.9856 44.3343 19.7838 44.2927C18.9022 44.111 18.6957 43.0547 19.4045 42.3533C20.2556 41.5117 22.0154 41.883 22.6197 43.0323C22.8736 43.515 22.903 44.4763 22.6817 45.0567C22.1863 46.356 20.7419 47.039 19.2766 46.6673C18.2789 46.414 17.8727 46.14 16.6699 44.9087C14.5798 42.7687 13.7684 42.354 10.7552 41.8867L10.1778 41.797L10.8349 41.2457Z" fill="white"/>
<path fill-rule="evenodd" clip-rule="evenodd" d="M1.02794 2.94663C8.00783 11.3666 12.8152 14.8405 13.3495 15.5744C13.7906 16.1804 13.6246 16.7253 12.8689 17.1523C12.4487 17.3897 11.5847 17.6302 11.1521 17.6302C10.6629 17.6302 10.4949 17.4426 10.4949 17.4426C10.2112 17.1752 10.0515 17.222 8.59467 14.6519C6.5722 11.5327 4.87963 8.94525 4.83347 8.90192C4.7267 8.80175 4.72853 8.80512 8.38847 15.3138C8.9798 16.6704 8.50607 17.1683 8.50607 17.3615C8.50607 17.7546 8.3982 17.9612 7.91037 18.502C7.09713 19.4037 6.7336 20.4169 6.47117 22.5137C6.177 24.8642 5.34973 26.5246 3.05719 29.3663C1.71521 31.0298 1.49562 31.3347 1.157 32.0051C0.73048 32.8494 0.613203 33.3223 0.56567 34.3884C0.51543 35.5157 0.613277 36.244 0.95978 37.3217C1.26313 38.2654 1.57977 38.8884 2.38926 40.1343C3.08784 41.2097 3.49007 42.009 3.49007 42.3217C3.49007 42.5704 3.53787 42.5707 4.62037 42.3277C7.21093 41.7463 9.31447 40.7237 10.4975 39.4703C11.2297 38.6947 11.4016 38.2663 11.4072 37.2037C11.4108 36.5084 11.3862 36.3627 11.1971 35.9627C10.8893 35.3117 10.329 34.7704 9.0939 33.9314C7.47567 32.8318 6.78447 31.9466 6.59357 30.7293C6.43693 29.7304 6.61863 29.0257 7.51387 27.1609C8.44047 25.2306 8.6701 24.408 8.82543 22.4623C8.92577 21.2053 9.0647 20.7096 9.42807 20.3116C9.80707 19.8967 10.1482 19.7562 11.0861 19.6288C12.6152 19.4212 13.5889 19.028 14.3892 18.295C15.0835 17.6591 15.374 17.0464 15.4186 16.124L15.4525 15.4249L15.0645 14.9753C13.6594 13.3471 0.087001 1.66669 0.000534788 1.66669C-0.0179368 1.66669 0.444417 2.2427 1.02794 2.94663ZM4.2788 35.664C4.59647 35.1047 4.42767 34.386 3.8963 34.0347C3.39423 33.703 2.61427 33.8594 2.61427 34.2917C2.61427 34.4237 2.68768 34.5197 2.85312 34.6044C3.13171 34.7467 3.15194 34.907 2.93274 35.2344C2.71077 35.566 2.72868 35.8577 2.9833 36.0557C3.39367 36.375 3.97457 36.1993 4.2788 35.664Z" fill="white"/>
<path fill-rule="evenodd" clip-rule="evenodd" d="M16.4175 19.9955C15.6996 20.2146 15.0018 20.9708 14.7858 21.7637C14.6541 22.2474 14.7288 23.0958 14.9262 23.3579C15.2451 23.7811 15.5534 23.8926 16.3884 23.8868C18.0231 23.8754 19.4443 23.1786 19.6095 22.3075C19.7449 21.5934 19.1208 20.6037 18.261 20.1693C17.8174 19.9452 16.8739 19.8563 16.4175 19.9955ZM18.3285 21.4807C18.5806 21.1247 18.4703 20.7399 18.0415 20.4797C17.225 19.9842 15.9903 20.3942 15.9903 21.1609C15.9903 21.5425 16.6342 21.9588 17.2244 21.9588C17.6172 21.9588 18.1548 21.726 18.3285 21.4807Z" fill="white"/>
</svg>
