<svg width="13" height="15" viewBox="0 0 13 15" fill="none" xmlns="http://www.w3.org/2000/svg">
<path d="M12.7876 3.7C12.7876 4.1125 12.4595 4.44938 12.0417 4.44938H2.47926L4.13583 6.13125C4.26955 6.26875 4.34445 6.4675 4.34445 6.66625C4.34445 6.86563 4.25469 7.06437 4.12035 7.20187C3.97178 7.33938 3.79226 7.41562 3.5985 7.41562C3.40412 7.41562 3.21035 7.32375 3.07602 7.18625L0.212307 4.22C0.0761738 4.07881 0 3.88954 0 3.6925C0 3.49546 0.0761738 3.30619 0.212307 3.165L3.06178 0.21375C3.21097 0.07625 3.38988 0 3.58364 0C3.77802 0 3.95693 0.060625 4.10612 0.21375C4.38902 0.52 4.38902 0.99375 4.10612 1.28438L2.51021 2.95125H12.0572C12.4595 2.95125 12.7876 3.2875 12.7876 3.7ZM9.40145 15C9.20769 15 9.02878 14.9238 8.89507 14.7863C8.82425 14.7167 8.76793 14.6335 8.72944 14.5416C8.69096 14.4497 8.67108 14.351 8.67097 14.2513C8.67097 14.0519 8.74526 13.8531 8.87959 13.7156L10.5058 12.0331H0.944021C0.54164 12.0331 0.213545 11.6969 0.213545 11.2844C0.213545 10.8719 0.54164 10.535 0.944021 10.535H10.491L8.87959 8.88375C8.59607 8.5775 8.59607 8.10375 8.87959 7.81313C9.17797 7.52313 9.64102 7.52313 9.92393 7.81313L12.7876 10.7494C12.9238 10.8906 12.9999 11.0798 12.9999 11.2769C12.9999 11.4739 12.9238 11.6632 12.7876 11.8044L9.92393 14.7706C9.78959 14.9231 9.59583 15 9.40145 15Z" fill="#fff"/>
</svg>
