<svg width="25" height="25" viewBox="0 0 25 25" fill="none" xmlns="http://www.w3.org/2000/svg">
<path d="M11.6423 6.38052L6.16197 11.5783H20.772C21.2688 11.5783 21.672 11.9815 21.672 12.4783C21.672 12.9752 21.2688 13.3783 20.772 13.3783H6.18482L11.6426 18.5767C12.0025 18.9196 12.0165 19.4893 11.6736 19.8493L11.6735 19.8493C11.4967 20.0347 11.2593 20.1283 11.022 20.1283C10.799 20.1283 10.5755 20.0459 10.4014 19.8799C10.4014 19.8799 10.4014 19.8799 10.4013 19.8799L3.85802 13.6474L3.85799 13.6475L3.85548 13.6449C3.54378 13.3337 3.37197 12.919 3.37197 12.4783C3.37197 12.0367 3.54447 11.6222 3.86867 11.2989L3.86864 11.2988L3.87115 11.2964L10.4014 5.0767L10.5044 5.18484L10.4014 5.0767C10.7609 4.73426 11.3311 4.74766 11.6737 5.10781C12.0166 5.4679 12.002 6.03749 11.6426 6.38024L11.6423 6.38052Z" fill="white" stroke="white" stroke-width="0.3"/>
</svg>
