<svg width="39" height="39" viewBox="0 0 39 39" fill="none" xmlns="http://www.w3.org/2000/svg">
<path d="M9.14062 27.5742H2.4375V34.4297H4.78603V32.2108C8.44205 36.4472 13.7902 39 19.4833 39C21.1258 39 22.795 38.7947 24.375 38.3886L23.8037 36.1748C22.4134 36.5329 20.9339 36.7148 19.4833 36.7148C14.0782 36.7148 9.00329 34.1269 5.78685 29.8594H9.14062V27.5742Z" fill="#FF007A"/>
<path d="M19.4833 2.28516C24.8894 2.28516 29.9632 4.87325 33.1793 9.14062H29.7832V11.4258H36.4863V4.57031H34.125V6.78143C30.469 2.54932 25.1722 0 19.4833 0C17.8409 0 16.205 0.205283 14.625 0.611432L15.1963 2.82521C16.5866 2.46705 18.0328 2.28516 19.4833 2.28516Z" fill="#FF007A"/>
<path d="M36.1748 15.1941C36.5341 16.5888 36.7148 18.0517 36.7148 19.5C36.7148 24.9058 34.1266 29.9803 29.8594 33.1953V29.8594H27.5742V36.4863H34.4297V34.125H32.225C36.4522 30.4695 39 25.1862 39 19.5C39 17.8598 38.7947 16.2061 38.3886 14.625L36.1748 15.1941Z" fill="#FF007A"/>
<path d="M0 19.5C0 21.1402 0.205283 22.7939 0.611432 24.375L2.82521 23.8059C2.46591 22.4112 2.28516 20.9483 2.28516 19.5C2.28516 14.0937 4.8734 9.01829 9.14062 5.8027V9.2168H11.4258V2.51367H4.57031V4.875H6.79187C2.55366 8.53079 0 13.8061 0 19.5H0Z" fill="#FF007A"/>
</svg>
