<svg width="140" height="150" viewBox="0 0 140 150" fill="none" xmlns="http://www.w3.org/2000/svg">
<path d="M41.5218 15.5141C39.6413 15.2242 39.562 15.1902 40.4469 15.055C42.1428 14.7958 46.1473 15.1491 48.9068 15.8012C55.349 17.3232 61.211 21.2221 67.4684 28.1466L69.1308 29.9862L71.5089 29.6062C81.5275 28.006 91.7195 29.2778 100.244 33.1918C102.589 34.2686 106.287 36.4121 106.749 36.9629C106.896 37.1384 107.166 38.2684 107.349 39.4742C107.982 43.6458 107.665 46.8434 106.382 49.2317C105.683 50.5313 105.644 50.9432 106.114 52.0554C106.489 52.943 107.534 53.5999 108.569 53.5985C110.687 53.5956 112.967 50.192 114.024 45.4561L114.444 43.575L115.275 44.5109C119.835 49.6459 123.417 56.6488 124.032 61.6335L124.192 62.9332L123.426 61.7517C122.107 59.7186 120.781 58.3346 119.084 57.2183C116.024 55.2062 112.789 54.5215 104.222 54.0727C96.484 53.6675 92.1046 53.0106 87.7622 51.6032C80.3739 49.209 76.6494 46.0204 67.873 34.576C63.9749 29.4928 61.5655 26.6804 59.1688 24.4155C53.7229 19.2691 48.3717 16.5701 41.5218 15.5141Z" fill="white"/>
<path d="M108.494 26.864C108.689 23.4578 109.153 21.2111 110.088 19.1593C110.458 18.3472 110.804 17.6825 110.858 17.6825C110.911 17.6825 110.75 18.2819 110.5 19.0145C109.821 21.0057 109.709 23.7293 110.177 26.8981C110.771 30.9187 111.109 31.4988 115.385 35.8419C117.39 37.8791 119.723 40.4483 120.568 41.5514L122.106 43.5571L120.568 42.1237C118.688 40.3708 114.364 36.9523 113.409 36.4636C112.768 36.1359 112.673 36.1416 112.278 36.5324C111.914 36.8925 111.837 37.4336 111.787 39.9918C111.708 43.9789 111.161 46.538 109.842 49.0968C109.128 50.4808 109.015 50.1854 109.661 48.6233C110.143 47.4569 110.192 46.9442 110.189 43.0845C110.181 35.3294 109.255 33.465 103.823 30.2712C102.447 29.4621 100.179 28.2953 98.7837 27.6781C97.3885 27.0609 96.2803 26.5233 96.3206 26.4831C96.4744 26.331 101.772 27.8678 103.905 28.6831C107.077 29.8957 107.6 30.0529 107.985 29.9066C108.244 29.8085 108.369 29.0611 108.494 26.864Z" fill="white"/>
<path d="M45.1742 40.1302C41.3566 34.9064 38.9945 26.8971 39.5059 20.9098L39.664 19.057L40.533 19.2146C42.1649 19.5104 44.9786 20.5513 46.2961 21.3467C49.9117 23.5291 51.477 26.4025 53.0694 33.7809C53.5359 35.9421 54.1479 38.3878 54.4295 39.2158C54.8828 40.5485 56.5959 43.6615 57.9887 45.6832C58.9919 47.1393 58.3255 47.8293 56.1079 47.6303C52.7212 47.3265 48.1337 44.1797 45.1742 40.1302Z" fill="white"/>
<path d="M103.863 79.0085C86.0223 71.869 79.7388 65.6718 79.7388 55.2154C79.7388 53.6766 79.7921 52.4176 79.857 52.4176C79.922 52.4176 80.6123 52.9254 81.3909 53.5462C85.0087 56.4302 89.0599 57.662 100.275 59.2882C106.875 60.2452 110.589 61.0182 114.015 62.1474C124.904 65.7368 131.641 73.0209 133.248 82.9423C133.715 85.8252 133.441 91.2314 132.684 94.0807C132.087 96.3312 130.263 100.388 129.779 100.544C129.645 100.587 129.514 100.076 129.479 99.3806C129.296 95.6551 127.402 92.0282 124.221 89.3113C120.604 86.2224 115.745 83.763 103.863 79.0085Z" fill="white"/>
<path d="M91.3387 81.975C91.1151 80.6529 90.7274 78.9645 90.4771 78.223L90.0219 76.875L90.8674 77.8182C92.0376 79.1236 92.9622 80.7939 93.7459 83.0187C94.344 84.7167 94.4113 85.2217 94.4068 87.9809C94.4022 90.6898 94.3275 91.2577 93.7752 92.7861C92.9044 95.1961 91.8235 96.905 90.0099 98.7393C86.7509 102.036 82.5609 103.861 76.5145 104.618C75.4635 104.749 72.4002 104.971 69.7071 105.11C62.9202 105.461 58.4533 106.186 54.4395 107.587C53.8625 107.788 53.3472 107.911 53.2949 107.859C53.1325 107.698 55.8653 106.079 58.1225 104.998C61.3052 103.474 64.4735 102.643 71.5721 101.468C75.0787 100.887 78.7 100.183 79.6196 99.9031C88.3035 97.2568 92.7673 90.4278 91.3387 81.975Z" fill="white"/>
<path d="M99.5169 96.411C97.1465 91.3464 96.6022 86.4565 97.9008 81.8962C98.0399 81.4089 98.2632 81.0101 98.3976 81.0101C98.5319 81.0101 99.0913 81.3106 99.6404 81.6778C100.733 82.4087 102.924 83.6396 108.76 86.8024C116.043 90.7491 120.196 93.8051 123.02 97.2966C125.493 100.354 127.023 103.837 127.76 108.084C128.177 110.489 127.932 116.277 127.311 118.699C125.353 126.337 120.802 132.336 114.311 135.837C113.36 136.35 112.506 136.771 112.414 136.773C112.321 136.775 112.668 135.899 113.184 134.827C115.367 130.29 115.616 125.877 113.965 120.965C112.954 117.957 110.893 114.287 106.732 108.084C101.893 100.873 100.707 98.954 99.5169 96.411Z" fill="white"/>
<path d="M32.5045 123.737C39.1251 118.181 47.3628 114.234 54.8665 113.022C58.1004 112.5 63.4876 112.707 66.4822 113.469C71.2823 114.69 75.5762 117.425 77.8093 120.683C79.9917 123.867 80.9281 126.642 81.9029 132.816C82.2875 135.252 82.7056 137.697 82.8322 138.251C83.5643 141.451 84.9889 144.008 86.7543 145.293C89.5582 147.333 94.3864 147.459 99.1361 145.618C99.9422 145.305 100.642 145.089 100.691 145.138C100.864 145.308 98.4718 146.899 96.7846 147.737C94.5142 148.864 92.709 149.3 90.3102 149.3C85.96 149.3 82.3485 147.101 79.3349 142.616C78.7418 141.733 77.4089 139.09 76.3728 136.741C73.1909 129.528 71.6199 127.331 67.9254 124.926C64.7104 122.834 60.564 122.459 57.4448 123.979C53.3474 125.976 52.2042 131.18 55.1388 134.478C56.3052 135.789 58.4802 136.919 60.2587 137.139C63.586 137.551 66.4454 135.035 66.4454 131.696C66.4454 129.528 65.607 128.291 63.4965 127.344C60.6139 126.051 57.5155 127.563 57.5303 130.254C57.5367 131.402 58.0395 132.122 59.197 132.643C59.9396 132.977 59.9568 133.003 59.3513 132.878C56.7065 132.333 56.0869 129.164 58.2134 127.06C60.7666 124.535 66.046 125.649 67.859 129.097C68.6208 130.545 68.709 133.429 68.045 135.17C66.5589 139.068 62.2255 141.117 57.8296 140.002C54.8367 139.242 53.618 138.42 50.0096 134.726C43.7394 128.306 41.3052 127.062 32.2656 125.66L30.5334 125.391L32.5045 123.737Z" fill="white"/>
<path fill-rule="evenodd" clip-rule="evenodd" d="M3.08383 8.83984C24.0235 34.0996 38.4457 44.5213 40.0484 46.7231C41.3717 48.5412 40.8737 50.1757 38.6067 51.4567C37.346 52.1689 34.7541 52.8905 33.4564 52.8905C31.9887 52.8905 31.4847 52.3278 31.4847 52.3278C30.6337 51.5255 30.1544 51.6658 25.784 43.9555C19.7166 34.5981 14.6389 26.8357 14.5004 26.7057C14.1801 26.4052 14.1856 26.4153 25.1654 45.9413C26.9394 50.011 25.5182 51.5049 25.5182 52.0845C25.5182 53.2636 25.1946 53.8834 23.7311 55.5059C21.2914 58.211 20.2008 61.2505 19.4135 67.541C18.531 74.5926 16.0492 79.5737 9.17156 88.0989C5.14562 93.0893 4.48686 94.004 3.471 96.0153C2.19144 98.5482 1.83961 99.9669 1.69701 103.165C1.54629 106.547 1.83983 108.732 2.87934 111.965C3.78939 114.796 4.73932 116.665 7.16778 120.403C9.26352 123.629 10.4702 126.027 10.4702 126.965C10.4702 127.711 10.6136 127.712 13.8611 126.983C21.6328 125.239 27.9434 122.171 31.4925 118.411C33.6891 116.084 34.2048 114.799 34.2215 111.611C34.2325 109.525 34.1587 109.088 33.5914 107.888C32.668 105.935 30.9869 104.311 27.2817 101.794C22.427 98.4953 20.3534 95.8398 19.7807 92.1878C19.3108 89.1913 19.8559 87.0771 22.5416 81.4825C25.3214 75.6916 26.0103 73.2239 26.4763 67.3869C26.7773 63.6158 27.1941 62.1286 28.2842 60.9348C29.4212 59.69 30.4447 59.2684 33.2584 58.8863C37.8457 58.2635 40.7667 57.0839 43.1677 54.8849C45.2505 52.9772 46.1221 51.1391 46.2558 48.372L46.3574 46.2747L45.1934 44.9259C40.9783 40.0411 0.261003 5 0.00160436 5C-0.0538105 5 1.33325 6.72804 3.08383 8.83984ZM12.8364 106.992C13.7894 105.314 13.283 103.158 11.6889 102.104C10.1827 101.109 7.8428 101.578 7.8428 102.875C7.8428 103.271 8.06303 103.559 8.55937 103.813C9.39514 104.24 9.45581 104.721 8.79823 105.703C8.1323 106.698 8.18604 107.573 8.94991 108.167C10.181 109.125 11.9237 108.598 12.8364 106.992Z" fill="white"/>
<path fill-rule="evenodd" clip-rule="evenodd" d="M49.2521 59.9863C47.0986 60.6437 45.0052 62.9122 44.3572 65.2908C43.9619 66.7419 44.1862 69.2873 44.7783 70.0734C45.7349 71.3431 46.66 71.6776 49.1649 71.6601C54.0691 71.6261 58.3325 69.5356 58.8282 66.9222C59.2345 64.7799 57.362 61.811 54.7828 60.5076C53.4519 59.8353 50.6215 59.5686 49.2521 59.9863ZM54.9851 64.442C55.7414 63.3739 55.4105 62.2196 54.1243 61.4389C51.6748 59.9523 47.9706 61.1825 47.9706 63.4824C47.9706 64.6272 49.9023 65.8763 51.6729 65.8763C52.8514 65.8763 54.4642 65.1778 54.9851 64.442Z" fill="white"/>
</svg>
