<svg width="36" height="36" viewBox="0 0 36 36" fill="none" xmlns="http://www.w3.org/2000/svg">
<path d="M31.6218 4.39562C28.7939 1.56105 25.034 0 21.0349 0C17.0358 0 13.2758 1.56105 10.448 4.39562C5.62131 9.23369 4.78583 16.5802 7.94084 22.2873L1.18641 29.0577C-0.395469 30.6433 -0.395469 33.2233 1.18641 34.8089C1.95267 35.5771 2.97144 36 4.05518 36C5.13892 36 6.15769 35.5771 6.92395 34.8089L13.6484 28.0686C15.8753 29.3386 18.4033 30.0147 21.0349 30.0147C25.0341 30.0147 28.794 28.4537 31.6218 25.6192C37.4594 19.7677 37.4594 10.247 31.6218 4.39562ZM28.9715 22.9626C26.8515 25.0874 24.033 26.2576 21.035 26.2576C18.0371 26.2576 15.2184 25.0874 13.0985 22.9626C8.72247 18.5761 8.72247 11.4386 13.0985 7.05222C15.2185 4.92724 18.0371 3.75704 21.035 3.75704C24.033 3.75704 26.8517 4.92724 28.9715 7.05222C33.3476 11.4387 33.3476 18.5761 28.9715 22.9626Z" fill="#FFC700"/>
</svg>
