<svg width="14" height="14" viewBox="0 0 14 14" fill="none" xmlns="http://www.w3.org/2000/svg">
<path d="M12.2974 1.70941C11.1976 0.607076 9.73545 0 8.18024 0C6.62503 0 5.16282 0.607076 4.06312 1.70941C2.18607 3.59088 1.86116 6.44786 3.08811 8.66728L0.461381 11.3002C-0.153794 11.9169 -0.153794 12.9202 0.461381 13.5368C0.759372 13.8355 1.15556 14 1.57701 14C1.99847 14 2.39466 13.8355 2.69265 13.5368L5.30771 10.9156C6.17375 11.4095 7.15683 11.6724 8.18024 11.6724C9.7355 11.6724 11.1977 11.0653 12.2974 9.96301C14.5675 7.68744 14.5675 3.98493 12.2974 1.70941ZM11.2667 8.92988C10.4423 9.75622 9.34617 10.2113 8.18029 10.2113C7.01442 10.2113 5.91827 9.75622 5.09387 8.92988C3.39207 7.22403 3.39207 4.44833 5.09387 2.74253C5.91832 1.91615 7.01442 1.46107 8.18029 1.46107C9.34617 1.46107 10.4423 1.91615 11.2667 2.74253C12.9685 4.44838 12.9685 7.22403 11.2667 8.92988Z" fill="#8D959C"/>
</svg>
